<?xml version="1.0" encoding="UTF-8" standalone="no"?>
<!-- Created with Inkscape (http://www.inkscape.org/) -->

<svg
   version="1.1"
   id="svg1"
   width="1058.2679"
   height="661.41736"
   viewBox="0 0 1058.2679 661.41736"
   sodipodi:docname="Diagramas TikZ.pdf"
   xmlns:inkscape="http://www.inkscape.org/namespaces/inkscape"
   xmlns:sodipodi="http://sodipodi.sourceforge.net/DTD/sodipodi-0.dtd"
   xmlns="http://www.w3.org/2000/svg"
   xmlns:svg="http://www.w3.org/2000/svg">
  <defs
     id="defs1" />
  <sodipodi:namedview
     id="namedview1"
     pagecolor="#ffffff"
     bordercolor="#000000"
     borderopacity="0.25"
     inkscape:showpageshadow="2"
     inkscape:pageopacity="0.0"
     inkscape:pagecheckerboard="0"
     inkscape:deskcolor="#d1d1d1">
    <inkscape:page
       x="0"
       y="0"
       inkscape:label="1"
       id="page1"
       width="1058.2679"
       height="661.41736"
       margin="0"
       bleed="0" />
  </sodipodi:namedview>
  <g
     id="g1"
     inkscape:groupmode="layer"
     inkscape:label="1">
    <path
       id="path1"
       d="M 0,0 H 793.701 V 496.063 H 0 Z"
       style="fill:#ffffff;fill-opacity:1;fill-rule:nonzero;stroke:none"
       transform="matrix(1.3333333,0,0,-1.3333333,0,661.41733)" />
    <path
       id="path2"
       d="m -28.3468,-297.64163 v 496.06936 h 793.711 v -496.06936 z"
       style="fill:#163b5c;fill-opacity:1;fill-rule:nonzero;stroke:none"
       transform="matrix(1.3333333,0,0,-1.3333333,37.794667,264.56667)" />
    <path
       id="path3"
       d="M 432.00702,-297.64163 V 198.42773 H 765.3642 v -496.06936 z"
       style="fill:#175cd3;fill-opacity:0.35;fill-rule:nonzero;stroke:none"
       transform="matrix(1.3333333,0,0,-1.3333333,37.794667,264.56667)" />
    <path
       id="path4"
       d="M 4.25185,-240.94798 V -90.70975 H 9.92157 V -240.94798 Z"
       style="fill:#b54708;fill-opacity:1;fill-rule:nonzero;stroke:none"
       transform="matrix(1.3333333,0,0,-1.3333333,37.794667,264.56667)" />
    <path
       id="path5"
       d="m 15.59084,-240.94798 v 124.72584 h 5.66928 v -124.72584 z"
       style="fill:#067647;fill-opacity:1;fill-rule:nonzero;stroke:none"
       transform="matrix(1.3333333,0,0,-1.3333333,37.794667,264.56667)" />
    <path
       id="path6"
       d="m 18.139883,-8.4728203 c 0,-1.9570317 -0.316406,-4.3710937 -1.710938,-6.1289067 -1.851562,-2.296875 -4.828125,-2.601562 -6.4453122,-2.601562 H 3.4445703 c -0.890625,0 -1.1953125,0.269531 -1.1953125,1.195312 v 14.8125004 c 0,0.90234379 0.28125,1.1953125375 1.1953125,1.1953125375 h 6.5390625 c 6.0468752,0 8.1562502,-3.6210937375 8.1562502,-8.4726562375 z m -3.5625,0 c 0,2.8007812 -0.28125,6.3398437 -5.5546877,6.3398437 H 5.8234766 V -15.070477 h 3.1757812 c 5.3554692,0 5.5781252,3.820313 5.5781252,6.5976567 z m 9.916992,7.2773437 V -10.16032 c 0,-0.796875 -0.164063,-1.195313 -1.183594,-1.195313 h -0.914062 c -0.902344,0 -1.195313,0.28125 -1.195313,1.195313 v 8.9648434 c 0,0.90234379 0.269531,1.1953125375 1.195313,1.1953125375 h 0.914062 c 0.9375,0 1.183594,-0.3164062475 1.183594,-1.1953125375 z m 0.175781,-13.8281254 v -0.46875 c 0,-0.796875 -0.175781,-1.183593 -1.183594,-1.183593 h -1.265625 c -0.949218,0 -1.195312,0.316406 -1.195312,1.183593 v 0.46875 c 0,0.726563 0.128906,1.195313 1.195312,1.195313 h 1.265625 c 1.03125,0 1.183594,-0.445313 1.183594,-1.195313 z m 13.107422,13.8281254 v -6.6328125 c 0,-3.9257809 -3.773437,-3.9492189 -5.015625,-3.9492189 -1.160156,0 -2.402344,0.105469 -4.066406,0.796875 -0.515625,0.222656 -0.644531,0.292969 -0.644531,0.574219 0,0.175781 0.152343,1.6054687 0.175781,1.8046874 0.02344,0.1523438 0.152344,0.2695313 0.328125,0.2695313 0.117187,0 0.199219,-0.070312 0.269531,-0.140625 1.066406,-1.125 2.308594,-1.6640627 3.84375,-1.6640627 1.335938,0 1.734375,0.8203127 1.734375,2.2851564 v 0.8671875 c -0.867187,0 -7.359375,0.046875 -7.359375,3.6914063 0,1.734375 1.382813,3.56249999 3.5625,3.56249999 0.84375,0 2.707031,-0.24609375 3.867188,-1.95703129 v 0.4921875 c 0,0.79687504 0.175781,1.1953125375 1.195312,1.1953125375 h 0.914063 c 0.9375,0 1.195312,-0.3164062475 1.195312,-1.1953125375 z m -3.375,-2.625 c 0,2.3085938 -2.355469,2.3085938 -2.425781,2.3085938 -1.042969,0 -1.710938,-0.890625 -1.710938,-1.8398438 0,-2.4257812 3.445313,-2.6015625 4.136719,-2.625 z m 17.865234,-6.2226564 c 0,-0.09375 -0.117187,-0.691406 -0.164062,-0.9375 -0.105469,-0.597656 -0.105469,-0.644531 -0.550781,-0.644531 -0.761719,0 -2.003907,0.292969 -2.953125,0.867187 -1.160157,-0.761718 -2.449219,-0.867187 -3.515625,-0.867187 -1.042969,0 -4.980469,0 -4.980469,4.0898437 0,0.9960937 0.269531,2.2265625 1.21875,3.046875 -0.679688,0.9140625 -0.679688,1.8867187 -0.679688,2.0039062 0,0.4804688 0.152344,1.2890625 0.679688,1.96875004 -0.375,0.140625 -1.664063,0.5859375 -1.664063,2.17968746 0,0.7617188 0.375,2.0507813 1.933594,2.7773438 1.40625,0.6445312 3.070313,0.6679687 4.242188,0.6679687 1.453125,0 6.1875,0 6.1875,-3.5273437 0,-3.8671875 -3.492188,-3.8671875 -6.832032,-3.8671875 h -1.195312 c -0.890625,0 -1.242188,0 -1.582031,-0.2929688 -0.105469,-0.09375 -0.527344,-0.46875 -0.527344,-1.1132812 0,-0.1757813 0.02344,-0.2226563 0.04687,-0.375 1.171875,0.6445312 2.636719,0.6445312 3.152344,0.6445312 1.042968,0 4.980468,0 4.980468,-4.0898437 0,-1.4414063 -0.539062,-2.3085938 -0.761718,-2.5781252 0.421875,0 1.289062,0 2.296875,0.2695314 0.105468,0.058594 0.28125,0.1054688 0.351562,0.1054688 0.199219,0 0.316406,-0.1523438 0.316406,-0.3281252 z m -5.378906,2.5078127 c 0,1.359375 -0.07031,2.3320312 -1.804687,2.3320312 -1.734375,0 -1.804688,-0.9492187 -1.804688,-2.3085937 0,-1.359375 0.07031,-2.3320313 1.804688,-2.3320313 1.734375,0 1.804687,0.9492188 1.804687,2.3085938 z m 2.578125,9.1992187 c 0,1.6523438 -2.824219,1.6523438 -3.609375,1.6523438 -0.996094,0 -3.644531,0 -3.644531,-1.734375 0,-1.16015626 0.761719,-1.16015626 1.335937,-1.16015626 h 2.871094 c 2.015625,0 3.046875,0.3515625 3.046875,1.24218746 z M 61.493398,-9.7853203 v -1.1718747 c 0,-0.492188 0,-0.667969 -0.445312,-0.667969 -0.691406,0 -2.507813,0.246094 -3.667969,2.9296874 h -0.02344 v -1.6171874 c 0,-0.796875 -0.175782,-1.183594 -1.195313,-1.183594 h -0.785156 c -0.902344,0 -1.195313,0.269531 -1.195313,1.183594 v 9.1171874 c 0,0.90234379 0.269532,1.1953125375 1.195313,1.1953125375 h 0.914062 c 0.9375,0 1.183594,-0.3164062475 1.183594,-1.1953125375 v -4.5 c 0,-2.3554687 1.957031,-3.328125 3.527344,-3.421875 0.445312,-0.023437 0.492187,-0.023437 0.492187,-0.6679687 z m 12.155274,8.5898437 v -6.6328125 c 0,-3.9257809 -3.773438,-3.9492189 -5.015625,-3.9492189 -1.160156,0 -2.402344,0.105469 -4.066406,0.796875 -0.515625,0.222656 -0.644532,0.292969 -0.644532,0.574219 0,0.175781 0.152344,1.6054687 0.175782,1.8046874 0.02344,0.1523438 0.152343,0.2695313 0.328125,0.2695313 0.117187,0 0.199218,-0.070312 0.269531,-0.140625 1.066406,-1.125 2.308594,-1.6640627 3.84375,-1.6640627 1.335937,0 1.734375,0.8203127 1.734375,2.2851564 v 0.8671875 c -0.867188,0 -7.359375,0.046875 -7.359375,3.6914063 0,1.734375 1.382812,3.56249999 3.5625,3.56249999 0.84375,0 2.707031,-0.24609375 3.867187,-1.95703129 v 0.4921875 c 0,0.79687504 0.175782,1.1953125375 1.195313,1.1953125375 h 0.914062 c 0.9375,0 1.195313,-0.3164062475 1.195313,-1.1953125375 z m -3.375,-2.625 c 0,2.3085938 -2.355469,2.3085938 -2.425781,2.3085938 -1.042969,0 -1.710938,-0.890625 -1.710938,-1.8398438 0,-2.4257812 3.445313,-2.6015625 4.136719,-2.625 z m 24.615234,2.625 v -6.8554687 c 0,-2.5546877 -1.089844,-3.5742187 -3.621094,-3.5742187 -1.757812,0 -3.128906,0.820312 -4.019531,2.4492187 -0.398437,-2.3789067 -2.496094,-2.4492187 -3.539062,-2.4492187 -0.46875,0 -1.511719,0 -2.625,0.820312 -0.773438,0.574219 -1.265625,1.3593754 -1.441407,1.7343754 h -0.02344 v -1.2421874 c 0,-0.796875 -0.175781,-1.183594 -1.195313,-1.183594 h -0.84375 c -0.890625,0 -1.183593,0.269531 -1.183593,1.183594 v 9.1171874 c 0,0.90234379 0.269531,1.1953125375 1.183593,1.1953125375 h 0.996094 c 0.9375,0 1.195313,-0.3164062475 1.195313,-1.1953125375 v -5.4726562 c 0,-2.2265625 1.511718,-3.1757813 2.71875,-3.1757813 1.195312,0 1.464843,0.5273438 1.464843,1.8398438 v 6.8085937 c 0,0.90234379 0.269532,1.1953125375 1.183594,1.1953125375 H 86.135 c 0.9375,0 1.195312,-0.3164062475 1.195312,-1.1953125375 v -5.4726562 c 0,-2.2265625 1.511719,-3.1757813 2.71875,-3.1757813 1.195313,0 1.464844,0.5273438 1.464844,1.8398438 v 6.8085937 c 0,0.90234379 0.269531,1.1953125375 1.195313,1.1953125375 h 0.984375 c 0.949218,0 1.195312,-0.3164062475 1.195312,-1.1953125375 z m 13.256834,0 v -6.6328125 c 0,-3.9257809 -3.77344,-3.9492189 -5.01562,-3.9492189 -1.16016,0 -2.40235,0.105469 -4.066409,0.796875 -0.515625,0.222656 -0.644531,0.292969 -0.644531,0.574219 0,0.175781 0.152343,1.6054687 0.175781,1.8046874 0.02344,0.1523438 0.152344,0.2695313 0.328125,0.2695313 0.117187,0 0.199219,-0.070312 0.269531,-0.140625 1.066403,-1.125 2.308593,-1.6640627 3.843753,-1.6640627 1.33593,0 1.73437,0.8203127 1.73437,2.2851564 v 0.8671875 c -0.86719,0 -7.359373,0.046875 -7.359373,3.6914063 0,1.734375 1.382813,3.56249999 3.562503,3.56249999 0.84375,0 2.70703,-0.24609375 3.86718,-1.95703129 v 0.4921875 c 0,0.79687504 0.17579,1.1953125375 1.19532,1.1953125375 h 0.91406 c 0.9375,0 1.19531,-0.3164062475 1.19531,-1.1953125375 z m -3.375,-2.625 c 0,2.3085938 -2.35547,2.3085938 -2.42578,2.3085938 -1.04297,0 -1.71094,-0.890625 -1.71094,-1.8398438 0,-2.4257812 3.44532,-2.6015625 4.13672,-2.625 z m 14.45508,0.328125 c 0,-1.3945312 -0.75,-2.2617187 -1.19531,-2.6601562 -0.9961,-0.890625 -1.86328,-1.03125 -2.89453,-1.2304688 -1.3711,-0.2460937 -2.35547,-0.4453125 -2.35547,-1.4179687 0,-1.0195313 0.80859,-1.2070317 1.78125,-1.2070317 1.66406,0 2.55469,0.6093754 3.19922,1.1601567 0.24609,0.2460937 0.29297,0.2460937 0.39843,0.2460937 0.2461,0 0.29297,-0.2226562 0.31641,-0.3164062 0.0469,-0.1992188 0.29297,-1.5937502 0.29297,-1.7109372 0,-0.398438 -1.3125,-0.75 -1.58203,-0.84375 -0.98438,-0.28125 -1.78125,-0.304688 -2.42578,-0.304688 -1.11328,0 -4.44141,0 -4.44141,3.5507814 0,1.2070313 0.55078,1.9570313 1.21875,2.5546875 0.86719,0.7851563 1.82813,0.9609375 3.24609,1.2304688 0.71485,0.1289062 1.98047,0.3515625 1.98047,1.4414062 0,1.1601563 -0.96093,1.3359375 -1.93359,1.3359375 -1.08984,0 -2.47266,-0.3164062 -3.64453,-1.7109375 -0.11719,-0.1171875 -0.19922,-0.1992187 -0.33985,-0.1992187 -0.24609,0 -0.30468,0.2226562 -0.32812,0.375 -0.0469,0.3515625 -0.33984,1.7578125 -0.33984,2.0039062 0,0.45703129 1.85156,1.04296879 1.85156,1.04296879 1.37109,0.421875 2.3789,0.421875 2.80078,0.421875 1.26562,0 4.39453,-0.09375 4.39453,-3.76171879 z m 26.88574,-12.1757814 v -0.199219 c 0,-0.785156 -0.17578,-1.183593 -1.19531,-1.183593 H 131.135 c -0.89063,0 -1.18359,0.269531 -1.18359,1.183593 v 0.199219 c 0,1.195313 0.58593,1.195313 1.28906,1.195313 l 4.98047,-0.08203 v 13.3593754 c 0,0.90234379 0.26953,1.1953125375 1.18359,1.1953125375 h 1.26563 c 0.9375,0 1.19531,-0.3164062475 1.19531,-1.1953125375 V -14.554852 l 4.95703,0.08203 c 0.69141,0 1.28906,0 1.28906,-1.195313 z m 5.82422,14.4726564 V -10.16032 c 0,-0.796875 -0.16406,-1.195313 -1.18359,-1.195313 h -0.91407 c -0.90234,0 -1.19531,0.28125 -1.19531,1.195313 v 8.9648434 c 0,0.90234379 0.26953,1.1953125375 1.19531,1.1953125375 h 0.91407 c 0.9375,0 1.18359,-0.3164062475 1.18359,-1.1953125375 z m 0.17578,-13.8281254 v -0.46875 c 0,-0.796875 -0.17578,-1.183593 -1.18359,-1.183593 h -1.26563 c -0.94922,0 -1.19531,0.316406 -1.19531,1.183593 v 0.46875 c 0,0.726563 0.12891,1.195313 1.19531,1.195313 h 1.26563 c 1.03125,0 1.18359,-0.445313 1.18359,-1.195313 z m 13.66992,14.47265669 c 0,0 0,-0.22265625 -0.24609,-0.53906249 l -4.3125,-5.6484375 3.82031,-3.5507817 c 0.29297,-0.269531 0.36328,-0.339843 0.36328,-0.539062 0,-0.527344 -0.49218,-0.527344 -0.83203,-0.527344 h -1.4414 c -0.44532,0 -0.91407,0 -1.48828,0.527344 l -3.57422,3.3164062 v -8.4960942 c 0,-0.796875 -0.16407,-1.195312 -1.1836,-1.195312 h -0.52734 c -0.89063,0 -1.18359,0.269531 -1.18359,1.195312 v 14.8125004 c 0,0.90234379 0.26953,1.1953125375 1.18359,1.1953125375 h 0.45703 c 0.9375,0 1.18359,-0.3164062475 1.18359,-1.1953125375 v -2.5664062 c 0.39844,-0.3515625 0.77344,-0.7265625 1.16016,-1.0664063 l 3.22266,4.20703129 c 0.42187,0.55078125 0.59765,0.6210937475 1.3125,0.6210937475 h 1.19531 c 0.35156,0 0.89062,0 0.89062,-0.5507812475 z m 16.10157,-0.64453129 v -0.2226562 c 0,-1.1835938 -0.57422,-1.1835938 -1.41797,-1.1835938 l -7.89844,0.09375 8.91797,-12.5390624 c 0.24609,-0.316406 0.24609,-0.375 0.24609,-0.914063 0,-0.667968 -0.0234,-1.242187 -1.18359,-1.242187 h -10.86328 c -1.04297,0 -1.1836,0.421875 -1.1836,1.21875 0,1.207031 0.51563,1.207031 1.51172,1.207031 l 6.46875,-0.07031 h 0.86719 l -8.97656,12.5976559 c -0.2461,0.3164063 -0.2461,0.3632813 -0.2461,0.8671875 v 0.1875 c 0,0.90234379 0.26954,1.1953125375 1.19532,1.1953125375 h 11.36718 c 0.94922,0 1.19532,-0.3164062475 1.19532,-1.1953125375 z m 0,0"
       style="fill:#ffffff;fill-opacity:1;fill-rule:nonzero;stroke:none"
       aria-label="DiagramasTikZ"
       transform="matrix(1.3333333,0,0,1.3333333,90.153333,301.176)" />
    <path
       id="path7"
       d="M 6.4676172,5.703125e-4 V -0.80802344 H 4.8973047 c -0.140625,0 -0.28125,0.0117188 -0.4335938,0.0117188 H 2.1082422 V -3.9486484 H 5.9754297 V -4.6634922 H 2.1082422 v -2.8710937 h 1.6171875 c 0.140625,0 0.2929687,0.011719 0.4335937,0.011719 h 2.15625 v -0.75 H 1.0769922 V 5.703125e-4 Z M 9.1189844,0.70369531 V -5.3080234 h -0.890625 v 6.12890621 c 0,0.79687499 -0.6328125,0.86718749 -0.8789063,0.86718749 -0.5273437,0 -0.8554687,-0.3398437 -0.8789062,-0.375 l -0.234375,0.7148438 c 0.375,0.234375 0.8554687,0.4101562 1.40625,0.4101562 0.75,0 1.4765625,-0.6210937 1.4765625,-1.73437499 z m 0,-7.48828121 v -1.03125 h -1.03125 v 1.03125 z m 5.7949216,4.0898437 c 0,-0.5039062 -0.04687,-1.2421875 -0.433594,-1.875 -0.480468,-0.8203125 -1.324218,-0.9140625 -1.664062,-0.9140625 -1.300781,0 -2.367188,1.2421875 -2.367188,2.7890625 0,1.5820313 1.148438,2.81250001 2.53125,2.81250001 0.550782,0 1.207032,-0.15234375 1.863282,-0.6328125 0,-0.046875 -0.03516,-0.4453125 -0.03516,-0.4453125 0,0 -0.03516,-0.26953121 -0.03516,-0.31640621 -0.703125,0.59765621 -1.40625,0.67968746 -1.769531,0.67968746 -0.925781,0 -1.710938,-0.82031246 -1.734375,-2.09765626 z m -0.703125,-0.6445312 h -2.871094 c 0.210938,-0.796875 0.761719,-1.4296875 1.476563,-1.4296875 0.363281,0 1.195312,0.1640625 1.394531,1.4296875 z m 9.375,3.3398437125 V -3.5970859 c 0,-0.8203125 -0.210937,-1.828125 -1.617187,-1.828125 -1.007813,0 -1.570313,0.703125 -1.757813,0.9726562 -0.210937,-0.7617187 -0.867187,-0.9726562 -1.488281,-0.9726562 -0.984375,0 -1.5,0.6328125 -1.699219,0.8789062 v -0.8203125 h -0.84375 V 5.703125e-4 h 0.902344 V -2.9759922 c 0,-0.7851562 0.316406,-1.734375 1.183594,-1.734375 1.101562,0 1.160156,0.75 1.160156,1.1953125 V 5.703125e-4 h 0.914062 V -2.9759922 c 0,-0.7851562 0.304688,-1.734375 1.171875,-1.734375 1.101563,0 1.160157,0.75 1.160157,1.1953125 V 5.703125e-4 Z M 30.077969,-2.6595859 c 0,-1.453125 -0.761719,-2.765625 -1.875,-2.765625 -0.492188,0 -1.253907,0.1523437 -1.875,0.6796875 v -0.5625 h -0.878907 v 7.6289062 h 0.902344 v -2.85937499 c 0.410156,0.375 0.914063,0.65625 1.558594,0.65625 1.148437,0 2.167969,-1.16015621 2.167969,-2.77734371 z m -0.902344,0.011719 c 0,1.1953125 -0.832031,2.05078126 -1.710938,2.05078126 -0.339843,0 -0.5625,-0.1171875 -0.773437,-0.28125 C 26.386562,-1.1478672 26.351406,-1.3588047 26.351406,-1.5580234 v -2.4609375 c 0.28125,-0.3984375 0.726563,-0.6679688 1.21875,-0.6679688 0.890625,0 1.605469,0.9023438 1.605469,2.0390628 z M 32.333828,5.703125e-4 V -8.2963047 H 31.454922 V 5.703125e-4 Z M 38.755703,-2.6244297 c 0,-1.6171875 -1.183594,-2.859375 -2.554687,-2.859375 -1.40625,0 -2.566407,1.265625 -2.566407,2.859375 0,1.5585938 1.195313,2.74218751 2.554688,2.74218751 1.40625,0 2.566406,-1.20703121 2.566406,-2.74218751 z m -0.902344,-0.1289062 c 0,1.4765625 -0.855468,2.13281246 -1.652343,2.13281246 -0.867188,0 -1.664063,-0.71484376 -1.664063,-2.13281246 0,-1.4414063 0.902344,-2.015625 1.652344,-2.015625 0.820312,0 1.664062,0.6210937 1.664062,2.015625 z m 10.03125,2.24999996 c 0,-0.0351563 -0.03516,-0.41015625 -0.04687,-0.45703125 l -0.02344,-0.32812501 c -0.550781,0.44531251 -1.160156,0.66796876 -1.828125,0.66796876 -0.996094,0 -1.640625,-0.89062496 -1.640625,-2.03906246 0,-0.9960938 0.480469,-2.0859375 1.675781,-2.0859375 0.796875,0 1.136719,0.1875 1.652344,0.5390625 l 0.140625,-0.7734375 c -0.691406,-0.4101563 -1.089844,-0.5039063 -1.792969,-0.5039063 -1.652344,0 -2.578125,1.453125 -2.578125,2.8242188 0,1.5234375 1.101563,2.77734371 2.53125,2.77734371 0.585938,0 1.253906,-0.140625 1.910156,-0.62109375 z m 5.824219,-2.12109376 c 0,-1.6171875 -1.183594,-2.859375 -2.554687,-2.859375 -1.40625,0 -2.566407,1.265625 -2.566407,2.859375 0,1.5585938 1.195313,2.74218751 2.554688,2.74218751 1.40625,0 2.566406,-1.20703121 2.566406,-2.74218751 z m -0.902344,-0.1289062 c 0,1.4765625 -0.855468,2.13281246 -1.652343,2.13281246 -0.867188,0 -1.664063,-0.71484376 -1.664063,-2.13281246 0,-1.4414063 0.902344,-2.015625 1.652344,-2.015625 0.820312,0 1.664062,0.6210937 1.664062,2.015625 z M 59.140469,5.703125e-4 V -3.5970859 c 0,-0.7265625 -0.152344,-1.828125 -1.59375,-1.828125 -0.667969,0 -1.242188,0.2929687 -1.699219,0.8671875 V -5.3666172 H 55.00375 V 5.703125e-4 h 0.902344 V -2.9759922 c 0,-0.7382812 0.28125,-1.734375 1.183593,-1.734375 1.113282,0 1.148438,0.7734375 1.148438,1.1953125 V 5.703125e-4 Z M 69.558437,-2.6595859 c 0,-1.453125 -0.761718,-2.765625 -1.875,-2.765625 -0.492187,0 -1.253906,0.1523437 -1.875,0.6796875 v -0.5625 h -0.878906 v 7.6289062 h 0.902344 v -2.85937499 c 0.410156,0.375 0.914062,0.65625 1.558594,0.65625 1.148437,0 2.167968,-1.16015621 2.167968,-2.77734371 z m -0.902343,0.011719 c 0,1.1953125 -0.832032,2.05078126 -1.710938,2.05078126 -0.339844,0 -0.5625,-0.1171875 -0.773437,-0.28125 C 65.867031,-1.1478672 65.831875,-1.3588047 65.831875,-1.5580234 v -2.4609375 c 0.28125,-0.3984375 0.726562,-0.6679688 1.21875,-0.6679688 0.890625,0 1.605469,0.9023438 1.605469,2.0390628 z M 71.814297,5.703125e-4 V -8.2963047 H 70.935391 V 5.703125e-4 Z m 5.727539,0 V -3.5033359 c 0,-1.1484375 -0.820313,-1.9804688 -1.933594,-1.9804688 -0.714844,0 -1.253906,0.1640625 -1.839844,0.5039063 l 0.07031,0.7851562 c 0.527344,-0.3867187 1.078125,-0.5976562 1.769531,-0.5976562 0.550781,0 1.03125,0.4453125 1.03125,1.3125 v 0.4921875 c -0.539062,0.023437 -1.265625,0.058594 -1.980469,0.2929687 -0.796875,0.28125 -1.265625,0.7265625 -1.265625,1.3242188 0,0.52734371 0.316407,1.48828121 1.324219,1.48828121 0.65625,0 1.5,-0.1875 1.945313,-0.5625 V 5.703125e-4 Z M 76.639492,-1.6048984 c 0,0.2460937 0,0.5273437 -0.398437,0.77343746 -0.328125,0.19921875 -0.726563,0.234375 -0.914063,0.234375 -0.644531,0 -1.078125,-0.3515625 -1.078125,-0.78515626 0,-0.8203125 1.652344,-0.9960937 2.390625,-0.9960937 z M 83.415859,5.703125e-4 V -3.5970859 c 0,-0.7265625 -0.152343,-1.828125 -1.59375,-1.828125 -0.667968,0 -1.242187,0.2929687 -1.699218,0.8671875 v -0.8085938 h -0.84375 V 5.703125e-4 h 0.902343 V -2.9759922 c 0,-0.7382812 0.28125,-1.734375 1.183594,-1.734375 1.113281,0 1.148438,0.7734375 1.148438,1.1953125 V 5.703125e-4 Z M 89.843594,-2.6244297 c 0,-1.6171875 -1.183594,-2.859375 -2.554688,-2.859375 -1.40625,0 -2.566406,1.265625 -2.566406,2.859375 0,1.5585938 1.195312,2.74218751 2.554687,2.74218751 1.40625,0 2.566407,-1.20703121 2.566407,-2.74218751 z M 88.94125,-2.7533359 c 0,1.4765625 -0.855469,2.13281246 -1.652344,2.13281246 -0.867187,0 -1.664062,-0.71484376 -1.664062,-2.13281246 0,-1.4414063 0.902343,-2.015625 1.652343,-2.015625 0.820313,0 1.664063,0.6210937 1.664063,2.015625 z M 95.925625,5.703125e-4 V -5.3080234 H 95.046719 V 5.703125e-4 Z M 95.995937,-6.7845859 v -1.03125 h -1.03125 v 1.03125 z M 101.92562,5.703125e-4 V -3.5970859 c 0,-0.7265625 -0.15234,-1.828125 -1.59375,-1.828125 -0.667964,0 -1.242183,0.2929687 -1.699214,0.8671875 v -0.8085938 h -0.84375 V 5.703125e-4 H 98.69125 V -2.9759922 c 0,-0.7382812 0.28125,-1.734375 1.183594,-1.734375 1.113276,0 1.148436,0.7734375 1.148436,1.1953125 V 5.703125e-4 Z m 5.80372,-0.5039062525 c 0,-0.0351563 -0.0352,-0.41015625 -0.0469,-0.45703125 l -0.0234,-0.32812501 c -0.55078,0.44531251 -1.16015,0.66796876 -1.82812,0.66796876 -0.9961,0 -1.64063,-0.89062496 -1.64063,-2.03906246 0,-0.9960938 0.48047,-2.0859375 1.67578,-2.0859375 0.79688,0 1.13672,0.1875 1.65235,0.5390625 l 0.14062,-0.7734375 c -0.6914,-0.4101563 -1.08984,-0.5039063 -1.79297,-0.5039063 -1.65234,0 -2.57812,1.453125 -2.57812,2.8242188 0,1.5234375 1.10156,2.77734371 2.53125,2.77734371 0.58594,0 1.25391,-0.140625 1.91016,-0.62109375 z m 2.15625,0.5039062525 V -8.2963047 h -0.87891 V 5.703125e-4 Z m 2.7539,0 V -5.3080234 h -0.8789 V 5.703125e-4 Z M 112.7098,-6.7845859 v -1.03125 h -1.03125 v 1.03125 z m 5.92969,6.7851562125 V -3.5970859 c 0,-0.7265625 -0.15234,-1.828125 -1.59375,-1.828125 -0.66797,0 -1.24219,0.2929687 -1.69922,0.8671875 v -0.8085938 h -0.84375 V 5.703125e-4 h 0.90235 V -2.9759922 c 0,-0.7382812 0.28125,-1.734375 1.18359,-1.734375 1.11328,0 1.14844,0.7734375 1.14844,1.1953125 V 5.703125e-4 Z m 5.73633,0 V -3.5033359 c 0,-1.1484375 -0.82031,-1.9804688 -1.93359,-1.9804688 -0.71485,0 -1.25391,0.1640625 -1.83985,0.5039063 l 0.0703,0.7851562 c 0.52734,-0.3867187 1.07812,-0.5976562 1.76953,-0.5976562 0.55078,0 1.03125,0.4453125 1.03125,1.3125 v 0.4921875 c -0.53907,0.023437 -1.26563,0.058594 -1.98047,0.2929687 -0.79688,0.28125 -1.26563,0.7265625 -1.26563,1.3242188 0,0.52734371 0.31641,1.48828121 1.32422,1.48828121 0.65625,0 1.5,-0.1875 1.94531,-0.5625 V 5.703125e-4 Z M 123.47348,-1.6048984 c 0,0.2460937 0,0.5273437 -0.39844,0.77343746 -0.32813,0.19921875 -0.72656,0.234375 -0.91406,0.234375 -0.64453,0 -1.07813,-0.3515625 -1.07813,-0.78515626 0,-0.8203125 1.65235,-0.9960937 2.39063,-0.9960937 z m 6.77343,1.6054687125 V -8.2963047 h -0.8789 v 3.4921875 c -0.55078,-0.4570312 -1.17188,-0.6210937 -1.6875,-0.6210937 -1.13672,0 -2.0625,1.21875 -2.0625,2.7773437 0,1.5351563 0.8789,2.76562501 2.01562,2.76562501 0.44532,0 1.11328,-0.140625 1.71094,-0.7265625 V 5.703125e-4 Z M 129.34457,-1.4056797 c -0.29297,0.50390626 -0.70312,0.80859376 -1.23047,0.80859376 -0.72656,0 -1.59375,-0.56249996 -1.59375,-2.03906246 0,-1.59375 1.01953,-2.0742188 1.71094,-2.0742188 0.46875,0 0.85547,0.2460938 1.11328,0.6328125 z m 7.3418,-1.21875 c 0,-1.6171875 -1.1836,-2.859375 -2.55469,-2.859375 -1.40625,0 -2.56641,1.265625 -2.56641,2.859375 0,1.5585938 1.19532,2.74218751 2.55469,2.74218751 1.40625,0 2.56641,-1.20703121 2.56641,-2.74218751 z m -0.90235,-0.1289062 c 0,1.4765625 -0.85547,2.13281246 -1.65234,2.13281246 -0.86719,0 -1.66406,-0.71484376 -1.66406,-2.13281246 0,-1.4414063 0.90234,-2.015625 1.65234,-2.015625 0.82031,0 1.66406,0.6210937 1.66406,2.015625 z m 10.34766,-2.5546875 h -0.90234 c -0.55079,1.40625 -1.46485,3.75 -1.51172,4.61718746 h -0.0117 c -0.0586,-0.70312496 -0.70313,-2.28515626 -0.79688,-2.51953126 l -0.84375,-2.0976562 h -0.94922 L 143.34262,5.703125e-4 142.92074,1.0904141 c -0.25781,0.5976562 -0.43359,0.65625 -0.65625,0.65625 -0.16406,0 -0.55078,-0.035156 -0.91406,-0.1757813 l 0.0703,0.7734375 c 0.0703,0.011719 0.46875,0.09375 0.84375,0.09375 0.29297,0 0.85547,0 1.35938,-1.3125 z m 9.55664,2.6835937 c 0,-1.6171875 -1.18359,-2.859375 -2.55469,-2.859375 -1.40625,0 -2.5664,1.265625 -2.5664,2.859375 0,1.5585938 1.19531,2.74218751 2.55468,2.74218751 1.40625,0 2.56641,-1.20703121 2.56641,-2.74218751 z m -0.90234,-0.1289062 c 0,1.4765625 -0.85547,2.13281246 -1.65235,2.13281246 -0.86718,0 -1.66406,-0.71484376 -1.66406,-2.13281246 0,-1.4414063 0.90234,-2.015625 1.65234,-2.015625 0.82032,0 1.66407,0.6210937 1.66407,2.015625 z m 6.45117,-2.5546875 h -0.90235 c -0.64453,1.7695312 -0.26953,0.7382812 -0.86718,2.3789062 -0.21094,0.5742188 -0.64453,1.8398438 -0.71485,2.28515626 h -0.0234 c -0.0586,-0.42187496 -0.29297,-1.07812496 -0.46875,-1.59374996 l -1.10157,-3.0703125 h -0.9375 l 1.98047,5.3085937125 h 1.05469 z m 5.03906,2.6132812 c 0,-0.5039062 -0.0469,-1.2421875 -0.43359,-1.875 -0.48047,-0.8203125 -1.32422,-0.9140625 -1.66407,-0.9140625 -1.30078,0 -2.36718,1.2421875 -2.36718,2.7890625 0,1.5820313 1.14843,2.81250001 2.53125,2.81250001 0.55078,0 1.20703,-0.15234375 1.86328,-0.6328125 0,-0.046875 -0.0352,-0.4453125 -0.0352,-0.4453125 0,0 -0.0351,-0.26953121 -0.0351,-0.31640621 -0.70313,0.59765621 -1.40625,0.67968746 -1.76954,0.67968746 -0.92578,0 -1.71093,-0.82031246 -1.73437,-2.09765626 z m -0.70312,-0.6445312 h -2.8711 c 0.21094,-0.796875 0.76172,-1.4296875 1.47656,-1.4296875 0.36329,0 1.19532,0.1640625 1.39454,1.4296875 z m 4.83984,-1.2890625 v -0.796875 c -1.07813,0.011719 -1.72266,0.6445312 -2.03906,1.1132812 v -1.0546875 h -0.82032 V 5.703125e-4 h 0.87891 V -2.6127109 c 0,-1.2070313 0.91406,-2.0039063 1.98047,-2.015625 z m 1.99805,4.6289062125 V -8.2963047 h -0.87891 V 5.703125e-4 Z m 5.72754,0 V -3.5033359 c 0,-1.1484375 -0.82032,-1.9804688 -1.9336,-1.9804688 -0.71484,0 -1.2539,0.1640625 -1.83984,0.5039063 l 0.0703,0.7851562 c 0.52734,-0.3867187 1.07813,-0.5976562 1.76953,-0.5976562 0.55078,0 1.03125,0.4453125 1.03125,1.3125 v 0.4921875 c -0.53906,0.023437 -1.26562,0.058594 -1.98047,0.2929687 -0.79687,0.28125 -1.26562,0.7265625 -1.26562,1.3242188 0,0.52734371 0.3164,1.48828121 1.32422,1.48828121 0.65625,0 1.5,-0.1875 1.94531,-0.5625 V 5.703125e-4 Z M 177.23617,-1.6048984 c 0,0.2460937 0,0.5273437 -0.39844,0.77343746 -0.32812,0.19921875 -0.72656,0.234375 -0.91406,0.234375 -0.64453,0 -1.07812,-0.3515625 -1.07812,-0.78515626 0,-0.8203125 1.65234,-0.9960937 2.39062,-0.9960937 z m 6.57129,-3.703125 h -0.90234 c -0.55078,1.40625 -1.46485,3.75 -1.51172,4.61718746 h -0.0117 c -0.0586,-0.70312496 -0.70313,-2.28515626 -0.79688,-2.51953126 l -0.84375,-2.0976562 h -0.94921 L 181.0184,5.703125e-4 180.59652,1.0904141 c -0.25781,0.5976562 -0.43359,0.65625 -0.65625,0.65625 -0.16406,0 -0.55078,-0.035156 -0.91406,-0.1757813 l 0.0703,0.7734375 c 0.0703,0.011719 0.46875,0.09375 0.84375,0.09375 0.29297,0 0.85547,0 1.35938,-1.3125 z m 4.38281,3.7851562 c 0,-0.609375 -0.375,-0.984375 -0.42187,-1.0429687 -0.4336,-0.4570313 -0.79688,-0.5273438 -1.52344,-0.6679688 -0.43359,-0.09375 -1.04297,-0.2109375 -1.04297,-0.8085937 0,-0.7382813 0.83203,-0.7382813 0.9961,-0.7382813 0.63281,0 1.13671,0.140625 1.65234,0.4453125 l 0.15234,-0.7851562 c -0.77343,-0.3515625 -1.41797,-0.3632813 -1.6875,-0.3632813 -0.28125,0 -1.93359,0 -1.93359,1.546875 0,0.5273438 0.28125,0.890625 0.45703,1.0546875 0.43359,0.375 0.73828,0.4335938 1.44141,0.5742188 0.39843,0.082031 1.08984,0.234375 1.08984,0.8671875 0,0.82031246 -0.9375,0.82031246 -1.10156,0.82031246 -0.48047,0 -1.17188,-0.12890625 -1.81641,-0.59765626 l -0.14062,0.80859376 c 0.0586,0.0351563 0.86718,0.52734375 1.96875,0.52734375 1.53515,0 1.91015,-0.92578125 1.91015,-1.64062501 z m 0,0"
       style="fill:#ffffff;fill-opacity:1;fill-rule:nonzero;stroke:none"
       aria-label="Ejemploconplanoinclinadoyoverlays"
       transform="matrix(1.3333333,0,0,1.3333333,91.286667,325.24533)" />
  </g>
</svg>
